<svg width="30" height="30" viewBox="0 0 30 30" fill="none" xmlns="http://www.w3.org/2000/svg">
<path d="M21.25 12.5C23.3211 12.5 25 10.8211 25 8.75C25 6.67893 23.3211 5 21.25 5C19.1789 5 17.5 6.67893 17.5 8.75C17.5 10.8211 19.1789 12.5 21.25 12.5Z" stroke="#949494" stroke-width="1.5" stroke-linecap="round" stroke-linejoin="round"/>
<path d="M8.75 25C10.8211 25 12.5 23.3211 12.5 21.25C12.5 19.1789 10.8211 17.5 8.75 17.5C6.67893 17.5 5 19.1789 5 21.25C5 23.3211 6.67893 25 8.75 25Z" stroke="#949494" stroke-width="1.5" stroke-linecap="round" stroke-linejoin="round"/>
<path d="M17.5 17.5H25V23.75C25 24.0815 24.8683 24.3995 24.6339 24.6339C24.3995 24.8683 24.0815 25 23.75 25H18.75C18.4185 25 18.1005 24.8683 17.8661 24.6339C17.6317 24.3995 17.5 24.0815 17.5 23.75V17.5ZM5 5H12.5V11.25C12.5 11.5815 12.3683 11.8995 12.1339 12.1339C11.8995 12.3683 11.5815 12.5 11.25 12.5H6.25C5.91848 12.5 5.60054 12.3683 5.36612 12.1339C5.1317 11.8995 5 11.5815 5 11.25V5Z" stroke="#949494" stroke-width="1.5" stroke-linecap="round" stroke-linejoin="round"/>
</svg>
