<svg width="30" height="30" viewBox="0 0 30 30" fill="none" xmlns="http://www.w3.org/2000/svg">
<mask id="path-1-inside-1_1187_2177" fill="white">
<path d="M24.3563 25.1924L16.5288 17.3649C15.9038 17.8974 15.185 18.3095 14.3725 18.6012C13.56 18.8928 12.7433 19.0387 11.9225 19.0387C9.92084 19.0387 8.22668 18.3458 6.84001 16.9599C5.45334 15.5733 4.76001 13.8795 4.76001 11.8787C4.76001 9.87785 5.45251 8.18326 6.83751 6.79493C8.22334 5.40576 9.91668 4.71118 11.9175 4.71118C13.9192 4.71118 15.6142 5.40452 17.0025 6.79118C18.3908 8.17785 19.085 9.87243 19.085 11.8749C19.085 12.7433 18.9313 13.5837 18.6238 14.3962C18.3154 15.2087 17.9113 15.9037 17.4113 16.4812L25.2388 24.3074L24.355 25.1924H24.3563ZM11.9225 17.7874C13.5808 17.7874 14.9813 17.2166 16.1238 16.0749C17.2654 14.9333 17.8363 13.5328 17.8363 11.8737C17.8363 10.2153 17.2654 8.81535 16.1238 7.67368C14.9821 6.53201 13.5821 5.96118 11.9238 5.96118C10.2654 5.96118 8.86501 6.53201 7.72251 7.67368C6.58084 8.81535 6.01001 10.2153 6.01001 11.8737C6.01001 13.532 6.58084 14.932 7.72251 16.0737C8.86418 17.2153 10.2642 17.7874 11.9225 17.7874Z"/>
</mask>
<path d="M24.3563 25.1924L16.5288 17.3649C15.9038 17.8974 15.185 18.3095 14.3725 18.6012C13.56 18.8928 12.7433 19.0387 11.9225 19.0387C9.92084 19.0387 8.22668 18.3458 6.84001 16.9599C5.45334 15.5733 4.76001 13.8795 4.76001 11.8787C4.76001 9.87785 5.45251 8.18326 6.83751 6.79493C8.22334 5.40576 9.91668 4.71118 11.9175 4.71118C13.9192 4.71118 15.6142 5.40452 17.0025 6.79118C18.3908 8.17785 19.085 9.87243 19.085 11.8749C19.085 12.7433 18.9313 13.5837 18.6238 14.3962C18.3154 15.2087 17.9113 15.9037 17.4113 16.4812L25.2388 24.3074L24.355 25.1924H24.3563ZM11.9225 17.7874C13.5808 17.7874 14.9813 17.2166 16.1238 16.0749C17.2654 14.9333 17.8363 13.5328 17.8363 11.8737C17.8363 10.2153 17.2654 8.81535 16.1238 7.67368C14.9821 6.53201 13.5821 5.96118 11.9238 5.96118C10.2654 5.96118 8.86501 6.53201 7.72251 7.67368C6.58084 8.81535 6.01001 10.2153 6.01001 11.8737C6.01001 13.532 6.58084 14.932 7.72251 16.0737C8.86418 17.2153 10.2642 17.7874 11.9225 17.7874Z" fill="#949494"/>
<path d="M24.3563 25.1924V27.1924H29.1847L25.7705 23.7782L24.3563 25.1924ZM16.5288 17.3649L17.943 15.9507L16.6373 14.645L15.2317 15.8426L16.5288 17.3649ZM6.84001 16.9599L5.4258 18.3741L5.42622 18.3746L6.84001 16.9599ZM6.83751 6.79493L5.4216 5.38242L5.4216 5.38242L6.83751 6.79493ZM18.6238 14.3962L20.4936 15.1058L20.4943 15.1041L18.6238 14.3962ZM17.4113 16.4812L15.8992 15.1721L14.6808 16.5794L15.9972 17.8955L17.4113 16.4812ZM25.2388 24.3074L26.654 25.7206L28.0663 24.3063L26.6529 22.8931L25.2388 24.3074ZM24.355 25.1924L22.9398 23.7792L19.5314 27.1924H24.355V25.1924ZM16.1238 16.0749L17.5375 17.4897L17.538 17.4891L16.1238 16.0749ZM7.72251 7.67368L6.30881 6.25895L6.3083 6.25947L7.72251 7.67368ZM25.7705 23.7782L17.943 15.9507L15.1145 18.7791L22.942 26.6066L25.7705 23.7782ZM15.2317 15.8426C14.7997 16.2106 14.294 16.5044 13.6968 16.7188L15.0482 20.4836C16.0761 20.1146 17.0078 19.5842 17.8258 18.8873L15.2317 15.8426ZM13.6968 16.7188C13.0898 16.9367 12.5013 17.0387 11.9225 17.0387V21.0387C12.9854 21.0387 14.0303 20.849 15.0482 20.4836L13.6968 16.7188ZM11.9225 17.0387C10.4386 17.0387 9.25668 16.5476 8.2538 15.5453L5.42622 18.3746C7.19667 20.144 9.40311 21.0387 11.9225 21.0387V17.0387ZM8.25422 15.5457C7.25108 14.5426 6.76001 13.3611 6.76001 11.8787H2.76001C2.76001 14.3979 3.65561 16.604 5.4258 18.3741L8.25422 15.5457ZM6.76001 11.8787C6.76001 10.3954 7.25088 9.2124 8.25342 8.20744L5.4216 5.38242C3.65414 7.15413 2.76001 9.36029 2.76001 11.8787H6.76001ZM8.25342 8.20745C9.25584 7.20261 10.4362 6.71118 11.9175 6.71118V2.71118C9.39714 2.71118 7.19084 3.60892 5.4216 5.38242L8.25342 8.20745ZM11.9175 6.71118C13.4011 6.71118 14.5842 7.20249 15.5891 8.20624L18.4159 5.37612C16.6442 3.60654 14.4372 2.71118 11.9175 2.71118V6.71118ZM15.5891 8.20624C16.5933 9.20922 17.085 10.3911 17.085 11.8749H21.085C21.085 9.3538 20.1884 7.14648 18.4159 5.37612L15.5891 8.20624ZM17.085 11.8749C17.085 12.5013 16.9752 13.1019 16.7532 13.6883L20.4943 15.1041C20.8873 14.0655 21.085 12.9852 21.085 11.8749H17.085ZM16.7539 13.6866C16.5174 14.3096 16.2261 14.7945 15.8992 15.1721L18.9233 17.7903C19.5964 17.0129 20.1134 16.1077 20.4936 15.1058L16.7539 13.6866ZM15.9972 17.8955L23.8247 25.7218L26.6529 22.8931L18.8254 15.0669L15.9972 17.8955ZM23.8235 22.8942L22.9398 23.7792L25.7702 26.6056L26.654 25.7206L23.8235 22.8942ZM24.355 27.1924H24.3563V23.1924H24.355V27.1924ZM11.9225 19.7874C14.0952 19.7874 16.0089 19.0172 17.5375 17.4897L14.7101 14.6602C13.9537 15.416 13.0665 15.7874 11.9225 15.7874V19.7874ZM17.538 17.4891C19.0662 15.961 19.8363 14.0469 19.8363 11.8737H15.8363C15.8363 13.0188 15.4647 13.9056 14.7095 14.6607L17.538 17.4891ZM19.8363 11.8737C19.8363 9.70101 19.0659 7.78744 17.538 6.25947L14.7095 9.08789C15.4649 9.84326 15.8363 10.7297 15.8363 11.8737H19.8363ZM17.538 6.25947C16.01 4.7315 14.0964 3.96118 11.9238 3.96118V7.96118C13.0678 7.96118 13.9542 8.33253 14.7095 9.08789L17.538 6.25947ZM11.9238 3.96118C9.75111 3.96118 7.83742 4.73146 6.30881 6.25895L9.13621 9.08841C9.8926 8.33257 10.7797 7.96118 11.9238 7.96118V3.96118ZM6.3083 6.25947C4.78033 7.78744 4.01001 9.70101 4.01001 11.8737H8.01001C8.01001 10.7297 8.38136 9.84326 9.13672 9.08789L6.3083 6.25947ZM4.01001 11.8737C4.01001 14.0464 4.78033 15.9599 6.3083 17.4879L9.13672 14.6595C8.38136 13.9041 8.01001 13.0177 8.01001 11.8737H4.01001ZM6.3083 17.4879C7.8355 19.0151 9.74872 19.7874 11.9225 19.7874V15.7874C10.7796 15.7874 9.89286 15.4156 9.13672 14.6595L6.3083 17.4879Z" fill="#949494" mask="url(#path-1-inside-1_1187_2177)"/>
</svg>
